<mxfile host="app.diagrams.net" agent="Mozilla/5.0 (Windows NT 10.0; Win64; x64) AppleWebKit/537.36 (KHTML, like Gecko) Chrome/141.0.0.0 Safari/537.36" version="28.2.5">
  <diagram name="1 oldal" id="_nQqRZ-DHJSDxQSo--ur">
    <mxGraphModel dx="2316" dy="900" grid="1" gridSize="10" guides="1" tooltips="1" connect="1" arrows="1" fold="1" page="1" pageScale="1" pageWidth="827" pageHeight="1169" math="0" shadow="0">
      <root>
        <mxCell id="0" />
        <mxCell id="1" parent="0" />
        <mxCell id="N8nY6ACUageVCmm9aM_i-1" value="U7W4RZ_vendéglátás" style="ellipse;whiteSpace=wrap;html=1;" vertex="1" parent="1">
          <mxGeometry x="420" y="50" width="176" height="90" as="geometry" />
        </mxCell>
        <mxCell id="N8nY6ACUageVCmm9aM_i-2" value="" style="ellipse;whiteSpace=wrap;html=1;" vertex="1" parent="1">
          <mxGeometry x="30" y="240" width="120" height="80" as="geometry" />
        </mxCell>
        <mxCell id="N8nY6ACUageVCmm9aM_i-3" value="Étterem" style="ellipse;whiteSpace=wrap;html=1;" vertex="1" parent="1">
          <mxGeometry x="35" y="245" width="110" height="70" as="geometry" />
        </mxCell>
        <mxCell id="N8nY6ACUageVCmm9aM_i-4" value="" style="ellipse;whiteSpace=wrap;html=1;" vertex="1" parent="1">
          <mxGeometry x="195" y="245" width="120" height="80" as="geometry" />
        </mxCell>
        <mxCell id="N8nY6ACUageVCmm9aM_i-5" value="Főszakács" style="ellipse;whiteSpace=wrap;html=1;" vertex="1" parent="1">
          <mxGeometry x="200" y="250" width="110" height="70" as="geometry" />
        </mxCell>
        <mxCell id="N8nY6ACUageVCmm9aM_i-6" value="" style="ellipse;whiteSpace=wrap;html=1;" vertex="1" parent="1">
          <mxGeometry x="360" y="240" width="120" height="80" as="geometry" />
        </mxCell>
        <mxCell id="N8nY6ACUageVCmm9aM_i-7" value="Szakács" style="ellipse;whiteSpace=wrap;html=1;" vertex="1" parent="1">
          <mxGeometry x="365" y="245" width="110" height="70" as="geometry" />
        </mxCell>
        <mxCell id="N8nY6ACUageVCmm9aM_i-8" value="" style="ellipse;whiteSpace=wrap;html=1;" vertex="1" parent="1">
          <mxGeometry x="840" y="240" width="120" height="80" as="geometry" />
        </mxCell>
        <mxCell id="N8nY6ACUageVCmm9aM_i-9" value="Vendég" style="ellipse;whiteSpace=wrap;html=1;" vertex="1" parent="1">
          <mxGeometry x="845" y="245" width="110" height="70" as="geometry" />
        </mxCell>
        <mxCell id="N8nY6ACUageVCmm9aM_i-12" value="" style="ellipse;whiteSpace=wrap;html=1;" vertex="1" parent="1">
          <mxGeometry x="680" y="240" width="120" height="80" as="geometry" />
        </mxCell>
        <mxCell id="N8nY6ACUageVCmm9aM_i-13" value="Gyakornok" style="ellipse;whiteSpace=wrap;html=1;" vertex="1" parent="1">
          <mxGeometry x="685" y="245" width="110" height="70" as="geometry" />
        </mxCell>
        <mxCell id="N8nY6ACUageVCmm9aM_i-14" value="" style="ellipse;whiteSpace=wrap;html=1;" vertex="1" parent="1">
          <mxGeometry x="520" y="240" width="120" height="80" as="geometry" />
        </mxCell>
        <mxCell id="N8nY6ACUageVCmm9aM_i-15" value="Rendelés" style="ellipse;whiteSpace=wrap;html=1;" vertex="1" parent="1">
          <mxGeometry x="525" y="245" width="110" height="70" as="geometry" />
        </mxCell>
        <mxCell id="N8nY6ACUageVCmm9aM_i-16" value="" style="endArrow=none;html=1;rounded=0;entryX=0.5;entryY=1;entryDx=0;entryDy=0;exitX=0.5;exitY=0;exitDx=0;exitDy=0;" edge="1" parent="1" source="N8nY6ACUageVCmm9aM_i-2" target="N8nY6ACUageVCmm9aM_i-1">
          <mxGeometry width="50" height="50" relative="1" as="geometry">
            <mxPoint x="390" y="380" as="sourcePoint" />
            <mxPoint x="440" y="330" as="targetPoint" />
          </mxGeometry>
        </mxCell>
        <mxCell id="N8nY6ACUageVCmm9aM_i-17" value="" style="endArrow=none;html=1;rounded=0;entryX=0.5;entryY=1;entryDx=0;entryDy=0;exitX=0.5;exitY=0;exitDx=0;exitDy=0;" edge="1" parent="1" source="N8nY6ACUageVCmm9aM_i-4" target="N8nY6ACUageVCmm9aM_i-1">
          <mxGeometry width="50" height="50" relative="1" as="geometry">
            <mxPoint x="440" y="290" as="sourcePoint" />
            <mxPoint x="858" y="190" as="targetPoint" />
          </mxGeometry>
        </mxCell>
        <mxCell id="N8nY6ACUageVCmm9aM_i-18" value="" style="endArrow=none;html=1;rounded=0;entryX=0.5;entryY=1;entryDx=0;entryDy=0;exitX=0.5;exitY=0;exitDx=0;exitDy=0;" edge="1" parent="1" source="N8nY6ACUageVCmm9aM_i-6" target="N8nY6ACUageVCmm9aM_i-1">
          <mxGeometry width="50" height="50" relative="1" as="geometry">
            <mxPoint x="510" y="320" as="sourcePoint" />
            <mxPoint x="928" y="220" as="targetPoint" />
          </mxGeometry>
        </mxCell>
        <mxCell id="N8nY6ACUageVCmm9aM_i-19" value="" style="endArrow=none;html=1;rounded=0;entryX=0.5;entryY=1;entryDx=0;entryDy=0;exitX=0.5;exitY=0;exitDx=0;exitDy=0;" edge="1" parent="1" source="N8nY6ACUageVCmm9aM_i-14" target="N8nY6ACUageVCmm9aM_i-1">
          <mxGeometry width="50" height="50" relative="1" as="geometry">
            <mxPoint x="590" y="320" as="sourcePoint" />
            <mxPoint x="1008" y="220" as="targetPoint" />
          </mxGeometry>
        </mxCell>
        <mxCell id="N8nY6ACUageVCmm9aM_i-20" value="" style="endArrow=none;html=1;rounded=0;entryX=0.5;entryY=1;entryDx=0;entryDy=0;exitX=0.5;exitY=0;exitDx=0;exitDy=0;" edge="1" parent="1" source="N8nY6ACUageVCmm9aM_i-12" target="N8nY6ACUageVCmm9aM_i-1">
          <mxGeometry width="50" height="50" relative="1" as="geometry">
            <mxPoint x="730" y="320" as="sourcePoint" />
            <mxPoint x="1148" y="220" as="targetPoint" />
          </mxGeometry>
        </mxCell>
        <mxCell id="N8nY6ACUageVCmm9aM_i-21" value="" style="endArrow=none;html=1;rounded=0;entryX=0.5;entryY=1;entryDx=0;entryDy=0;exitX=0.5;exitY=0;exitDx=0;exitDy=0;" edge="1" parent="1" source="N8nY6ACUageVCmm9aM_i-8" target="N8nY6ACUageVCmm9aM_i-1">
          <mxGeometry width="50" height="50" relative="1" as="geometry">
            <mxPoint x="810" y="220" as="sourcePoint" />
            <mxPoint x="1228" y="120" as="targetPoint" />
          </mxGeometry>
        </mxCell>
        <mxCell id="N8nY6ACUageVCmm9aM_i-22" value="Név" style="ellipse;whiteSpace=wrap;html=1;" vertex="1" parent="1">
          <mxGeometry x="-130" y="400" width="85" height="50" as="geometry" />
        </mxCell>
        <mxCell id="N8nY6ACUageVCmm9aM_i-23" value="Cím" style="ellipse;whiteSpace=wrap;html=1;" vertex="1" parent="1">
          <mxGeometry x="47.5" y="400" width="85" height="50" as="geometry" />
        </mxCell>
        <mxCell id="N8nY6ACUageVCmm9aM_i-24" value="Csillag" style="ellipse;whiteSpace=wrap;html=1;" vertex="1" parent="1">
          <mxGeometry x="210" y="400" width="85" height="50" as="geometry" />
        </mxCell>
        <mxCell id="N8nY6ACUageVCmm9aM_i-25" value="" style="endArrow=none;html=1;rounded=0;entryX=0.5;entryY=1;entryDx=0;entryDy=0;exitX=0.5;exitY=0;exitDx=0;exitDy=0;" edge="1" parent="1" source="N8nY6ACUageVCmm9aM_i-22" target="N8nY6ACUageVCmm9aM_i-2">
          <mxGeometry width="50" height="50" relative="1" as="geometry">
            <mxPoint x="330" y="380" as="sourcePoint" />
            <mxPoint x="20" y="320" as="targetPoint" />
          </mxGeometry>
        </mxCell>
        <mxCell id="N8nY6ACUageVCmm9aM_i-26" value="" style="endArrow=none;html=1;rounded=0;entryX=0.5;entryY=1;entryDx=0;entryDy=0;exitX=0.5;exitY=0;exitDx=0;exitDy=0;" edge="1" parent="1" source="N8nY6ACUageVCmm9aM_i-23" target="N8nY6ACUageVCmm9aM_i-2">
          <mxGeometry width="50" height="50" relative="1" as="geometry">
            <mxPoint x="30" y="440" as="sourcePoint" />
            <mxPoint x="137" y="360" as="targetPoint" />
          </mxGeometry>
        </mxCell>
        <mxCell id="N8nY6ACUageVCmm9aM_i-27" value="" style="endArrow=none;html=1;rounded=0;entryX=0.5;entryY=1;entryDx=0;entryDy=0;exitX=0.5;exitY=0;exitDx=0;exitDy=0;" edge="1" parent="1" source="N8nY6ACUageVCmm9aM_i-24" target="N8nY6ACUageVCmm9aM_i-2">
          <mxGeometry width="50" height="50" relative="1" as="geometry">
            <mxPoint x="210" y="450" as="sourcePoint" />
            <mxPoint x="150" y="320" as="targetPoint" />
          </mxGeometry>
        </mxCell>
        <mxCell id="N8nY6ACUageVCmm9aM_i-28" value="" style="rounded=0;whiteSpace=wrap;html=1;direction=south;" vertex="1" parent="1">
          <mxGeometry x="-108.75" y="490" width="42.5" height="70" as="geometry" />
        </mxCell>
        <mxCell id="N8nY6ACUageVCmm9aM_i-29" value="" style="endArrow=none;html=1;rounded=0;entryX=0.5;entryY=1;entryDx=0;entryDy=0;exitX=0;exitY=0.5;exitDx=0;exitDy=0;" edge="1" parent="1" source="N8nY6ACUageVCmm9aM_i-28" target="N8nY6ACUageVCmm9aM_i-22">
          <mxGeometry width="50" height="50" relative="1" as="geometry">
            <mxPoint x="330" y="380" as="sourcePoint" />
            <mxPoint x="380" y="330" as="targetPoint" />
          </mxGeometry>
        </mxCell>
        <mxCell id="N8nY6ACUageVCmm9aM_i-30" value="" style="rounded=0;whiteSpace=wrap;html=1;direction=south;" vertex="1" parent="1">
          <mxGeometry x="231.25" y="490" width="42.5" height="70" as="geometry" />
        </mxCell>
        <mxCell id="N8nY6ACUageVCmm9aM_i-31" value="" style="endArrow=none;html=1;rounded=0;exitX=0;exitY=0.5;exitDx=0;exitDy=0;entryX=0.5;entryY=1;entryDx=0;entryDy=0;" edge="1" parent="1" source="N8nY6ACUageVCmm9aM_i-30" target="N8nY6ACUageVCmm9aM_i-24">
          <mxGeometry width="50" height="50" relative="1" as="geometry">
            <mxPoint x="40" y="500" as="sourcePoint" />
            <mxPoint x="60" y="470" as="targetPoint" />
          </mxGeometry>
        </mxCell>
        <mxCell id="N8nY6ACUageVCmm9aM_i-32" value="Város" style="ellipse;whiteSpace=wrap;html=1;" vertex="1" parent="1">
          <mxGeometry x="-50" y="540" width="85" height="50" as="geometry" />
        </mxCell>
        <mxCell id="N8nY6ACUageVCmm9aM_i-33" value="Utca" style="ellipse;whiteSpace=wrap;html=1;" vertex="1" parent="1">
          <mxGeometry x="47.5" y="540" width="85" height="50" as="geometry" />
        </mxCell>
        <mxCell id="N8nY6ACUageVCmm9aM_i-34" value="Házszám" style="ellipse;whiteSpace=wrap;html=1;" vertex="1" parent="1">
          <mxGeometry x="140" y="540" width="85" height="50" as="geometry" />
        </mxCell>
        <mxCell id="N8nY6ACUageVCmm9aM_i-35" value="" style="endArrow=none;html=1;rounded=0;entryX=0.5;entryY=1;entryDx=0;entryDy=0;exitX=0.5;exitY=0;exitDx=0;exitDy=0;" edge="1" parent="1" source="N8nY6ACUageVCmm9aM_i-32" target="N8nY6ACUageVCmm9aM_i-23">
          <mxGeometry width="50" height="50" relative="1" as="geometry">
            <mxPoint x="-20" y="450" as="sourcePoint" />
            <mxPoint x="157" y="370" as="targetPoint" />
          </mxGeometry>
        </mxCell>
        <mxCell id="N8nY6ACUageVCmm9aM_i-36" value="" style="endArrow=none;html=1;rounded=0;entryX=0.5;entryY=1;entryDx=0;entryDy=0;exitX=0.5;exitY=0;exitDx=0;exitDy=0;" edge="1" parent="1" source="N8nY6ACUageVCmm9aM_i-33" target="N8nY6ACUageVCmm9aM_i-23">
          <mxGeometry width="50" height="50" relative="1" as="geometry">
            <mxPoint x="150" y="540" as="sourcePoint" />
            <mxPoint x="327" y="460" as="targetPoint" />
          </mxGeometry>
        </mxCell>
        <mxCell id="N8nY6ACUageVCmm9aM_i-37" value="" style="endArrow=none;html=1;rounded=0;entryX=0.5;entryY=1;entryDx=0;entryDy=0;exitX=0.5;exitY=0;exitDx=0;exitDy=0;" edge="1" parent="1" source="N8nY6ACUageVCmm9aM_i-34" target="N8nY6ACUageVCmm9aM_i-23">
          <mxGeometry width="50" height="50" relative="1" as="geometry">
            <mxPoint x="100" y="550" as="sourcePoint" />
            <mxPoint x="277" y="470" as="targetPoint" />
          </mxGeometry>
        </mxCell>
        <mxCell id="N8nY6ACUageVCmm9aM_i-38" value="" style="rounded=0;whiteSpace=wrap;html=1;direction=south;" vertex="1" parent="1">
          <mxGeometry x="-28.75" y="630" width="42.5" height="70" as="geometry" />
        </mxCell>
        <mxCell id="N8nY6ACUageVCmm9aM_i-39" value="" style="endArrow=none;html=1;rounded=0;entryX=0.5;entryY=1;entryDx=0;entryDy=0;exitX=0;exitY=0.5;exitDx=0;exitDy=0;" edge="1" parent="1" source="N8nY6ACUageVCmm9aM_i-38">
          <mxGeometry width="50" height="50" relative="1" as="geometry">
            <mxPoint x="410" y="520" as="sourcePoint" />
            <mxPoint x="-7" y="590" as="targetPoint" />
          </mxGeometry>
        </mxCell>
        <mxCell id="N8nY6ACUageVCmm9aM_i-40" value="" style="rounded=0;whiteSpace=wrap;html=1;direction=south;" vertex="1" parent="1">
          <mxGeometry x="68.75" y="630" width="42.5" height="70" as="geometry" />
        </mxCell>
        <mxCell id="N8nY6ACUageVCmm9aM_i-41" value="" style="endArrow=none;html=1;rounded=0;entryX=0.5;entryY=1;entryDx=0;entryDy=0;exitX=0;exitY=0.5;exitDx=0;exitDy=0;" edge="1" parent="1" source="N8nY6ACUageVCmm9aM_i-40">
          <mxGeometry width="50" height="50" relative="1" as="geometry">
            <mxPoint x="507.5" y="520" as="sourcePoint" />
            <mxPoint x="90.5" y="590" as="targetPoint" />
          </mxGeometry>
        </mxCell>
        <mxCell id="N8nY6ACUageVCmm9aM_i-42" value="" style="rounded=0;whiteSpace=wrap;html=1;direction=south;" vertex="1" parent="1">
          <mxGeometry x="161.25" y="630" width="42.5" height="70" as="geometry" />
        </mxCell>
        <mxCell id="N8nY6ACUageVCmm9aM_i-43" value="" style="endArrow=none;html=1;rounded=0;entryX=0.5;entryY=1;entryDx=0;entryDy=0;exitX=0;exitY=0.5;exitDx=0;exitDy=0;" edge="1" parent="1" source="N8nY6ACUageVCmm9aM_i-42">
          <mxGeometry width="50" height="50" relative="1" as="geometry">
            <mxPoint x="600" y="520" as="sourcePoint" />
            <mxPoint x="183" y="590" as="targetPoint" />
          </mxGeometry>
        </mxCell>
        <mxCell id="N8nY6ACUageVCmm9aM_i-44" value="&lt;u&gt;Ekod&lt;/u&gt;" style="rhombus;whiteSpace=wrap;html=1;" vertex="1" parent="1">
          <mxGeometry x="-146.25" y="260" width="80" height="80" as="geometry" />
        </mxCell>
        <mxCell id="N8nY6ACUageVCmm9aM_i-45" value="" style="endArrow=none;html=1;rounded=0;entryX=0;entryY=0.5;entryDx=0;entryDy=0;exitX=1;exitY=0.5;exitDx=0;exitDy=0;" edge="1" parent="1" source="N8nY6ACUageVCmm9aM_i-44" target="N8nY6ACUageVCmm9aM_i-2">
          <mxGeometry width="50" height="50" relative="1" as="geometry">
            <mxPoint x="10" y="410" as="sourcePoint" />
            <mxPoint x="187" y="330" as="targetPoint" />
          </mxGeometry>
        </mxCell>
      </root>
    </mxGraphModel>
  </diagram>
</mxfile>
